# xmcd
#
# Track frame offsets: 
#        150
#        17589
#        34844
#        47149
#        59773
#        76438
#        89059
#        104285
#        117585
#        134751
#        146796
#        166825
#        176886
#        187466
#        201202
#        212238
#        230250
#
# Disc length: 3242 seconds
#
# Revision: 0
# Processed by: cddbd v1.5.2PL0 Copyright (c) Steve Scherf et al.
# Submitted via: ExactAudioCopy v1.2
#
DISCID=0e0ca811
DTITLE=Marvin Gaye - 50 [CD2]
DYEAR=2007
DGENRE=Soul
TTITLE0=What's Going On
TTITLE1=Flyin' High (In The Friendly Sky)
TTITLE2=What's Happening Brother
TTITLE3=Can I Get A Witness
TTITLE4=That's The Way Love Is
TTITLE5=Stubborn Kind Of Fellow
TTITLE6=Diana Ross and Marvin Gaye - You're A Special Part Of Me
TTITLE7=Marvin Gaye and Tammi Terrell - The Onion Song
TTITLE8=Trouble Man
TTITLE9=Don't Take Much To Keep Me
TTITLE10=Just To Keep You Satisfied
TTITLE11=Wherever I Lay My Hat (That's My Home)
TTITLE12=Marvin Gaye and Tammi Terrell - If I Could Build My Whole World
TTITLE12=Around You
TTITLE13=Let Your Conscience Be Your Guide
TTITLE14=Marvin Gaye and Tammi Terrell - Good Lovin' Ain't Easy To Come 
TTITLE14=By
TTITLE15=If I Should Die Tonight
TTITLE16=Marvin Gaye and Tammi Terrell - You're All I Need To Get By
EXTD=
EXTT0=
EXTT1=
EXTT2=
EXTT3=
EXTT4=
EXTT5=
EXTT6=
EXTT7=
EXTT8=
EXTT9=
EXTT10=
EXTT11=
EXTT12=
EXTT13=
EXTT14=
EXTT15=
EXTT16=
PLAYORDER=
